<svg width="44" height="30" viewBox="0 0 44 30" xmlns="http://www.w3.org/2000/svg"><g fill="none" fill-rule="evenodd"><path fill="#174492" d="M.839 28.851h41.927V.9H.839z"/><path fill="#174492" d="M0 29.706h43.605V.088H0z"/><path fill="#FFEA00" d="M20.909 6.99l.885-.647.885.646-.337-1.044.898-.645h-1.107l-.34-1.058-.338 1.06-1.108-.002.899.645zM16.33 8.22l.886-.647.884.646-.336-1.044.898-.645h-1.107l-.34-1.058-.34 1.06-1.106-.002.898.645zm-2.465.61l-.34 1.058H12.42l.898.645-.337 1.043.885-.645.885.645-.337-1.043.898-.646h-1.107zm-1.229 6.674l.884.646-.336-1.045.898-.645h-1.107l-.339-1.06-.339 1.062-1.107-.002.898.645-.337 1.045zm1.568 3.542l-.34-1.058-.338 1.06-1.106-.002.897.646-.337 1.043.885-.646.885.646-.337-1.043.898-.646zm3.356 3.357l-.339-1.057-.338 1.058-1.108-.001.898.646-.337 1.043.885-.645.885.645-.336-1.043.897-.646zm4.574 1.216l-.34-1.058-.338 1.059-1.107-.001.896.646-.335 1.043.884-.645.886.645-.337-1.043.898-.646zm4.572-1.216l-.34-1.057-.34 1.058-1.104-.001.896.646-.336 1.043.885-.645.885.645-.337-1.043.898-.646zm3.357-3.357l-.34-1.058-.339 1.06-1.107-.002.898.646-.337 1.043.885-.646.885.646-.337-1.043.898-.646zm2.323-4.599H31.28l-.34-1.058-.339 1.059-1.108-.001.9.646-.337 1.043.884-.646.885.646-.336-1.043zm-3.548-2.884l.886-.646.884.646-.337-1.044.898-.644h-1.105l-.34-1.059-.34 1.059h-1.107l.9.644zm-2.458-6.09l-.338 1.059-1.107-.002.897.647-.337 1.044.886-.647.884.647-.336-1.044.898-.647h-1.108z"/></g></svg>