<svg xmlns="http://www.w3.org/2000/svg" viewBox="0 0 271 71" enable-background="new 0 0 271 71"><path fill-rule="evenodd" clip-rule="evenodd" fill="#04396e" stroke="#e82052" d="M.5.5l73.8 70h121.8l74.4-70"/><g transform="translate(118.463 20)"><defs><filter id="a" filterUnits="userSpaceOnUse" x="0" y="0" width="31.6" height="30"><feColorMatrix values="1 0 0 0 0 0 1 0 0 0 0 0 1 0 0 0 0 0 1 0"/></filter></defs><mask maskUnits="userSpaceOnUse" x="0" y="0" width="31.6" height="30" id="b"><g filter="url(#a)"><path fill-rule="evenodd" clip-rule="evenodd" fill="#fff" d="M0 0h31.6v30H0z"/></g></mask><path d="M19.5 27.4L12 18.7l-1-.5H2.6v-6.5h11.7l13.4 15.6h-8.2zM6 27.4c-1.9 0-3.4-1.5-3.4-3.4v-3.1h7.2v6.5H6zM20.2 2.6l8.2 9.6-5 6.2-7.5-8.8-1-.5H2.6V2.6h17.6zm5 17.8l6-7.4v-1.7L21.8.5l-1-.5H1.3L0 1.3V24c0 3.3 2.7 6 6 6h5.1l1.3-1.3v-5.6l5.6 6.5 1 .5h11.7l1-2.2-6.5-7.5z" mask="url(#b)" fill-rule="evenodd" clip-rule="evenodd" fill="#e82052"/></g><path d="M117 69h37c.6 0 1 .4 1 1s-.4 1-1 1h-37c-.6 0-1-.4-1-1s.4-1 1-1z" fill-rule="evenodd" clip-rule="evenodd" fill="#e82052"/></svg>