<svg xmlns="http://www.w3.org/2000/svg" viewBox="0 0 228 72" enable-background="new 0 0 228 72"><path fill-rule="evenodd" clip-rule="evenodd" fill="#04396e" stroke="#e82052" d="M0 1l73.8 70h79.8L228 1"/><g transform="translate(101.804 30.5)"><defs><filter id="a" filterUnits="userSpaceOnUse" x="0" y="0" width="25.9" height="25"><feColorMatrix values="1 0 0 0 0 0 1 0 0 0 0 0 1 0 0 0 0 0 1 0"/></filter></defs><mask maskUnits="userSpaceOnUse" x="0" y="0" width="25.9" height="25" id="b"><g filter="url(#a)"><path fill-rule="evenodd" clip-rule="evenodd" fill="#fff" d="M0 0h25.9v25H0z"/></g></mask><path d="M16 22.8l-6.1-7.2-.8-.4h-7V9.8h9.6l11 13H16zm-11.1 0c-1.5 0-2.8-1.3-2.8-2.8v-2.6H8v5.4H4.9zM16.6 2.2l6.7 8-4.1 5.1L13 8l-.8-.4H2.1V2.2h14.5zm4 14.8l4.9-6.1V9.5l-7.6-9-.8-.5h-16L0 1.1V20c0 2.8 2.2 5 4.9 5h4.2l1.1-1.1v-4.7l4.6 5.4.8.4h9.6l.8-1.8-5.4-6.2z" mask="url(#b)" fill-rule="evenodd" clip-rule="evenodd" fill="#e82052"/></g><path d="M95.5 69.5h37c.6 0 1 .4 1 1s-.4 1-1 1h-37c-.6 0-1-.4-1-1s.4-1 1-1z" fill-rule="evenodd" clip-rule="evenodd" fill="#e82052"/></svg>